<svg width="179" height="150" viewBox="0 0 179 150" fill="none" xmlns="http://www.w3.org/2000/svg">
<rect width="179" height="150" fill="#DDCF50"/>
<path d="M143.517 99.1648C143.453 98.9261 143.358 98.7159 143.233 98.5341C143.108 98.3485 142.955 98.1913 142.773 98.0625C142.591 97.9337 142.383 97.8371 142.148 97.7727C141.913 97.7045 141.655 97.6705 141.375 97.6705C140.811 97.6705 140.322 97.8068 139.909 98.0795C139.5 98.3523 139.184 98.75 138.96 99.2727C138.737 99.7917 138.625 100.422 138.625 101.165C138.625 101.911 138.733 102.547 138.949 103.074C139.165 103.6 139.477 104.002 139.886 104.278C140.295 104.555 140.792 104.693 141.375 104.693C141.89 104.693 142.326 104.61 142.682 104.443C143.042 104.273 143.314 104.032 143.5 103.722C143.686 103.411 143.778 103.045 143.778 102.625L144.301 102.688H141.472V100.636H146.489V102.176C146.489 103.218 146.267 104.11 145.824 104.852C145.384 105.595 144.778 106.165 144.006 106.562C143.237 106.96 142.352 107.159 141.352 107.159C140.242 107.159 139.267 106.919 138.426 106.438C137.585 105.956 136.93 105.271 136.46 104.381C135.991 103.487 135.756 102.426 135.756 101.199C135.756 100.244 135.898 99.3977 136.182 98.6591C136.466 97.9167 136.862 97.2879 137.369 96.7727C137.881 96.2576 138.472 95.8674 139.142 95.6023C139.816 95.3371 140.542 95.2045 141.318 95.2045C141.992 95.2045 142.619 95.3011 143.199 95.4943C143.782 95.6875 144.297 95.9602 144.744 96.3125C145.195 96.6648 145.561 97.0833 145.841 97.5682C146.121 98.053 146.295 98.5852 146.364 99.1648H143.517ZM150.925 102.023V107H148.146V98.2727H150.788V99.875H150.885C151.078 99.3409 151.408 98.9223 151.874 98.6193C152.339 98.3125 152.894 98.1591 153.538 98.1591C154.152 98.1591 154.684 98.2973 155.135 98.5739C155.589 98.8466 155.942 99.2292 156.192 99.7216C156.446 100.21 156.571 100.782 156.567 101.438V107H153.788V101.983C153.792 101.498 153.669 101.119 153.419 100.847C153.173 100.574 152.83 100.438 152.391 100.438C152.099 100.438 151.841 100.502 151.618 100.631C151.398 100.756 151.228 100.936 151.107 101.17C150.989 101.405 150.929 101.689 150.925 102.023Z" fill="#309546"/>
<path d="M25.1648 57.8693H20.9034C20.8466 57.4318 20.7301 57.0369 20.554 56.6847C20.3778 56.3324 20.1449 56.0312 19.8551 55.7812C19.5653 55.5312 19.2216 55.3409 18.8239 55.2102C18.4318 55.0739 17.9972 55.0057 17.5199 55.0057C16.6733 55.0057 15.9432 55.2131 15.3295 55.6278C14.7216 56.0426 14.2528 56.642 13.9233 57.4261C13.5994 58.2102 13.4375 59.1591 13.4375 60.2727C13.4375 61.4318 13.6023 62.4034 13.9318 63.1875C14.267 63.9659 14.7358 64.554 15.3381 64.9517C15.946 65.3437 16.6648 65.5398 17.4943 65.5398C17.9602 65.5398 18.3835 65.4801 18.7642 65.3608C19.1506 65.2415 19.4886 65.0682 19.7784 64.8409C20.0739 64.608 20.3153 64.3267 20.5028 63.9972C20.696 63.6619 20.8295 63.2841 20.9034 62.8636L25.1648 62.8892C25.0909 63.6619 24.8665 64.4233 24.4915 65.1733C24.1222 65.9233 23.6136 66.608 22.9659 67.2273C22.3182 67.8409 21.5284 68.3295 20.5966 68.6932C19.6705 69.0568 18.608 69.2386 17.4091 69.2386C15.8295 69.2386 14.4148 68.892 13.1648 68.1989C11.9205 67.5 10.9375 66.483 10.2159 65.1477C9.49432 63.8125 9.13352 62.1875 9.13352 60.2727C9.13352 58.3523 9.5 56.7244 10.233 55.3892C10.9659 54.054 11.9574 53.0398 13.2074 52.3466C14.4574 51.6534 15.858 51.3068 17.4091 51.3068C18.4659 51.3068 19.4432 51.4545 20.3409 51.75C21.2386 52.0398 22.0284 52.4659 22.7102 53.0284C23.392 53.5852 23.946 54.2699 24.3722 55.0824C24.7983 55.8949 25.0625 56.8239 25.1648 57.8693ZM33.6896 69.2472C32.3146 69.2472 31.1328 68.9659 30.1442 68.4034C29.1612 67.8352 28.4027 67.0455 27.8686 66.0341C27.3402 65.017 27.076 63.8381 27.076 62.4972C27.076 61.1506 27.3402 59.9716 27.8686 58.9602C28.4027 57.9432 29.1612 57.1534 30.1442 56.5909C31.1328 56.0227 32.3146 55.7386 33.6896 55.7386C35.0646 55.7386 36.2436 56.0227 37.2266 56.5909C38.2152 57.1534 38.9737 57.9432 39.5021 58.9602C40.0362 59.9716 40.3033 61.1506 40.3033 62.4972C40.3033 63.8381 40.0362 65.017 39.5021 66.0341C38.9737 67.0455 38.2152 67.8352 37.2266 68.4034C36.2436 68.9659 35.0646 69.2472 33.6896 69.2472ZM33.7152 66.1023C34.2152 66.1023 34.6385 65.9489 34.9851 65.642C35.3317 65.3352 35.5959 64.9091 35.7777 64.3636C35.9652 63.8182 36.0589 63.1875 36.0589 62.4716C36.0589 61.7443 35.9652 61.108 35.7777 60.5625C35.5959 60.017 35.3317 59.5909 34.9851 59.2841C34.6385 58.9773 34.2152 58.8239 33.7152 58.8239C33.1982 58.8239 32.7607 58.9773 32.4027 59.2841C32.0504 59.5909 31.7805 60.017 31.593 60.5625C31.4112 61.108 31.3203 61.7443 31.3203 62.4716C31.3203 63.1875 31.4112 63.8182 31.593 64.3636C31.7805 64.9091 32.0504 65.3352 32.4027 65.642C32.7607 65.9489 33.1982 66.1023 33.7152 66.1023ZM42.4382 69V55.9091H46.4013V58.3125H46.5462C46.8189 57.517 47.2791 56.8892 47.9268 56.429C48.5746 55.9688 49.3473 55.7386 50.245 55.7386C51.1541 55.7386 51.9325 55.9716 52.5803 56.4375C53.228 56.9034 53.6399 57.5284 53.8161 58.3125H53.9524C54.1967 57.5341 54.674 56.9119 55.3842 56.446C56.0945 55.9744 56.9325 55.7386 57.8984 55.7386C59.1371 55.7386 60.1428 56.1364 60.9155 56.9318C61.6882 57.7216 62.0746 58.8068 62.0746 60.1875V69H57.907V61.142C57.907 60.4886 57.7393 59.9915 57.4041 59.6506C57.0689 59.304 56.6342 59.1307 56.1001 59.1307C55.5263 59.1307 55.0746 59.3182 54.745 59.6932C54.4212 60.0625 54.2592 60.5597 54.2592 61.1847V69H50.2536V61.0994C50.2536 60.4915 50.0888 60.0114 49.7592 59.6591C49.4297 59.3068 48.995 59.1307 48.4553 59.1307C48.0916 59.1307 47.7706 59.2187 47.4922 59.3949C47.2138 59.5653 46.995 59.8097 46.8359 60.1278C46.6825 60.446 46.6058 60.821 46.6058 61.2528V69H42.4382ZM64.657 69V55.9091H68.62V58.3125H68.7649C69.0376 57.517 69.4979 56.8892 70.1456 56.429C70.7933 55.9688 71.5661 55.7386 72.4638 55.7386C73.3729 55.7386 74.1513 55.9716 74.799 56.4375C75.4467 56.9034 75.8587 57.5284 76.0348 58.3125H76.1712C76.4155 57.5341 76.8928 56.9119 77.603 56.446C78.3132 55.9744 79.1513 55.7386 80.1172 55.7386C81.3558 55.7386 82.3615 56.1364 83.1342 56.9318C83.907 57.7216 84.2933 58.8068 84.2933 60.1875V69H80.1257V61.142C80.1257 60.4886 79.9581 59.9915 79.6229 59.6506C79.2876 59.304 78.853 59.1307 78.3189 59.1307C77.745 59.1307 77.2933 59.3182 76.9638 59.6932C76.6399 60.0625 76.478 60.5597 76.478 61.1847V69H72.4723V61.0994C72.4723 60.4915 72.3075 60.0114 71.978 59.6591C71.6484 59.3068 71.2138 59.1307 70.674 59.1307C70.3104 59.1307 69.9893 59.2187 69.7109 59.3949C69.4325 59.5653 69.2138 59.8097 69.0547 60.1278C68.9013 60.446 68.8246 60.821 68.8246 61.2528V69H64.657ZM90.5661 69.2216C89.7308 69.2216 88.9893 69.0824 88.3416 68.804C87.6996 68.5199 87.1911 68.0937 86.8161 67.5256C86.4467 66.9517 86.2621 66.233 86.2621 65.3693C86.2621 64.642 86.3899 64.0284 86.6456 63.5284C86.9013 63.0284 87.2536 62.6222 87.7024 62.3097C88.1513 61.9972 88.6683 61.7614 89.2536 61.6023C89.8388 61.4375 90.4638 61.3267 91.1286 61.2699C91.8729 61.2017 92.4723 61.1307 92.9268 61.0568C93.3814 60.9773 93.7109 60.8665 93.9155 60.7244C94.1257 60.5767 94.2308 60.3693 94.2308 60.1023V60.0597C94.2308 59.6222 94.0803 59.2841 93.7791 59.0455C93.478 58.8068 93.0717 58.6875 92.5604 58.6875C92.0092 58.6875 91.5661 58.8068 91.2308 59.0455C90.8956 59.2841 90.6825 59.6136 90.5916 60.0341L86.7479 59.8977C86.8615 59.1023 87.1541 58.392 87.6257 57.767C88.103 57.1364 88.7564 56.642 89.5859 56.2841C90.4212 55.9205 91.424 55.7386 92.5945 55.7386C93.4297 55.7386 94.1996 55.8381 94.9041 56.0369C95.6087 56.2301 96.2223 56.5142 96.745 56.8892C97.2678 57.2585 97.6712 57.7131 97.9553 58.2528C98.245 58.7926 98.3899 59.4091 98.3899 60.1023V69H94.4695V67.1761H94.3672C94.1342 67.6193 93.8359 67.9943 93.4723 68.3011C93.1143 68.608 92.6911 68.8381 92.2024 68.9915C91.7195 69.1449 91.174 69.2216 90.5661 69.2216ZM91.853 66.4943C92.3018 66.4943 92.7053 66.4034 93.0632 66.2216C93.4268 66.0398 93.7166 65.7898 93.9325 65.4716C94.1484 65.1477 94.2564 64.7727 94.2564 64.3466V63.1023C94.1371 63.1648 93.9922 63.2216 93.8217 63.2727C93.657 63.3239 93.4751 63.3722 93.2763 63.4176C93.0774 63.4631 92.8729 63.5028 92.6626 63.5369C92.4524 63.571 92.2507 63.6023 92.0575 63.6307C91.6655 63.6932 91.3303 63.7898 91.0518 63.9205C90.7791 64.0511 90.5689 64.2216 90.4212 64.4318C90.2791 64.6364 90.2081 64.8807 90.2081 65.1648C90.2081 65.5966 90.3615 65.9261 90.6683 66.1534C90.9808 66.3807 91.3757 66.4943 91.853 66.4943ZM105.106 61.5341V69H100.938V55.9091H104.901V58.3125H105.046C105.336 57.5114 105.83 56.8835 106.529 56.429C107.228 55.9688 108.06 55.7386 109.026 55.7386C109.947 55.7386 110.745 55.946 111.421 56.3608C112.103 56.7699 112.631 57.3437 113.006 58.0824C113.387 58.8153 113.575 59.6733 113.569 60.6562V69H109.401V61.4744C109.407 60.7472 109.222 60.179 108.847 59.7699C108.478 59.3608 107.964 59.1562 107.305 59.1562C106.867 59.1562 106.481 59.2528 106.146 59.446C105.816 59.6335 105.56 59.9034 105.379 60.2557C105.202 60.608 105.112 61.0341 105.106 61.5341ZM120.93 69.1875C119.964 69.1875 119.087 68.9375 118.297 68.4375C117.507 67.9375 116.876 67.1875 116.405 66.1875C115.933 65.1875 115.697 63.946 115.697 62.4631C115.697 60.9233 115.942 59.6562 116.43 58.6619C116.919 57.6676 117.558 56.9318 118.348 56.4545C119.143 55.9773 119.999 55.7386 120.913 55.7386C121.601 55.7386 122.189 55.858 122.678 56.0966C123.166 56.3295 123.57 56.6307 123.888 57C124.206 57.3693 124.447 57.7528 124.612 58.1506H124.697V51.5455H128.865V69H124.74V66.8778H124.612C124.436 67.2812 124.186 67.6591 123.862 68.0114C123.538 68.3636 123.132 68.6477 122.643 68.8636C122.161 69.0795 121.589 69.1875 120.93 69.1875ZM122.379 65.9403C122.885 65.9403 123.317 65.7983 123.675 65.5142C124.033 65.2244 124.308 64.8182 124.501 64.2955C124.695 63.7727 124.791 63.1591 124.791 62.4545C124.791 61.7386 124.695 61.1222 124.501 60.6051C124.314 60.0881 124.038 59.6903 123.675 59.4119C123.317 59.1335 122.885 58.9943 122.379 58.9943C121.862 58.9943 121.425 59.1364 121.067 59.4205C120.709 59.7045 120.436 60.1051 120.249 60.6222C120.067 61.1392 119.976 61.75 119.976 62.4545C119.976 63.1591 120.07 63.7727 120.257 64.2955C120.445 64.8182 120.714 65.2244 121.067 65.5142C121.425 65.7983 121.862 65.9403 122.379 65.9403Z" fill="#D92872"/>
</svg>
